<svg xmlns="http://www.w3.org/2000/svg" viewBox="0 0 32 32" id="customer-service"><path d="M16,1A15,15,0,0,0,1,16v6a.5.5,0,0,0,.5.5H4v-5H2V16a14,14,0,0,1,28,0v1.54H28v5h2v4A3.5,3.5,0,0,1,26.5,30H19V28.5A1.5,1.5,0,0,0,17.5,27h-3A1.5,1.5,0,0,0,13,28.5v1A1.5,1.5,0,0,0,14.5,31h12A4.51,4.51,0,0,0,31,26.5V16A15,15,0,0,0,16,1Z"></path><path d="M7.5 13h-2a1.64 1.64 0 0 0-.5.09V25.91a1.64 1.64 0 0 0 .5.09h2A1.5 1.5 0 0 0 9 24.5v-10A1.5 1.5 0 0 0 7.5 13zM26.5 26a1.64 1.64 0 0 0 .5-.09V13.09a1.64 1.64 0 0 0-.5-.09h-2A1.5 1.5 0 0 0 23 14.5v10A1.5 1.5 0 0 0 24.5 26z"></path></svg>