<svg xmlns="http://www.w3.org/2000/svg" viewBox="0 0 40 40" id="honda"><path d="M26.88 9.88c-.68 3.06-1 4.49-1.52 6.69s-1 4.11-1.69 5.07a3.19 3.19 0 0 1-2.36 1.27A9.94 9.94 0 0 1 20 23a9.87 9.87 0 0 1-1.34-.06 3.22 3.22 0 0 1-2.37-1.27c-.72-1-1.14-2.94-1.66-5.07s-.84-3.63-1.52-6.69h-1c-.42 0-.74.06-1.08.1 0 0 .4 6.31.58 9s.52 7.56.82 11.14a12.09 12.09 0 0 0 1.55.15c1 .06 1.46.06 1.46.06a22.84 22.84 0 0 1 1.51-4.72 2 2 0 0 1 1.62-.9 12.75 12.75 0 0 1 1.44-.1 9.2 9.2 0 0 1 1.45.1 2 2 0 0 1 1.62.9 22.29 22.29 0 0 1 1.5 4.72s.45 0 1.45-.06 1.54-.15 1.54-.15c.3-3.58.64-8.32.82-11.14.18-2.67.59-9 .59-9-.35 0-.69-.08-1.09-.1h-1" data-name="svg 6"></path><path d="M34.84 13.6c-.4-4-3.09-4.85-5.43-5.25-1.19-.2-3.29-.36-4.63-.42s-4-.12-4.8-.12-3.61 0-4.79.12c-1.34.06-3.45.22-4.63.42-2.35.4-5 1.24-5.43 5.25a35.81 35.81 0 0 0-.12 4c0 2.55.26 4.25.38 5.46a26 26 0 0 0 .86 4.53A5.13 5.13 0 0 0 8 30.41a8.46 8.46 0 0 0 3.49 1.32 65.55 65.55 0 0 0 8.48.46 62.17 62.17 0 0 0 8.48-.46A8.09 8.09 0 0 0 32 30.41a5.13 5.13 0 0 0 1.79-2.77 26.32 26.32 0 0 0 .86-4.53c.12-1.19.34-2.91.38-5.46 0-1.54-.06-3-.16-4m-1.48 6.74a33.46 33.46 0 0 1-.93 6.52A5.35 5.35 0 0 1 31 29.46a6.39 6.39 0 0 1-3.45 1.33 61.4 61.4 0 0 1-7.56.38 61.4 61.4 0 0 1-7.56-.38A6.37 6.37 0 0 1 9 29.46a5.37 5.37 0 0 1-1.45-2.6 32.13 32.13 0 0 1-.92-6.52 41.72 41.72 0 0 1 .1-6.74c.3-2.52 1.54-3.78 4.21-4.25a39.34 39.34 0 0 1 4.51-.46c1.29-.08 3.37-.12 4.55-.12s3.27 0 4.53.12a39.53 39.53 0 0 1 4.47.46c2.66.49 3.9 1.75 4.23 4.25a41.65 41.65 0 0 1 .1 6.74" data-name="svg 7"></path></svg>