<svg xmlns="http://www.w3.org/2000/svg" viewBox="0 0 40 40" id="kia"><path d="M22.54 23.8a.13.13 0 0 1-.07-.12s.23-.75.51-1.6l1-3 .63-1.87c.07-.22.14-.43.14-.46a.15.15 0 0 0 0-.08s-.11-.05-.19-.05h-.16v-.45h3l.08.05s.18.52.95 2.81c1.25 3.73 1.53 4.59 1.53 4.63a.14.14 0 0 1-.08.13s-.31 0-.95 0a3.59 3.59 0 0 1-1 0l-.09-.07s-.14-.39-.28-.83c-1.32-4.11-1.28-4-1.31-4h-.1c-.04 0-.07.19-.79 2.45l-.5 1.57c-.07.2-.15.47-.19.59s-.11.29-.19.33-1.86 0-1.91 0zm-3.54 0v-7.08h-.05c-.05 0-.06-.05-.21-.05h-.15v-.45h2.46l.05.05v7.46H20a8.69 8.69 0 0 1-1 0zm-8.18 0s-.05 0-.07-.05a32.86 32.86 0 0 1 0-3.53v-3.5s-.05-.05-.21-.05h-.17v-.45H12.8v1.26c0 1.39 0 1.34.1 1.34s.08 0 .43-.52c.91-1.29 1.41-2 1.46-2s.06-.11 1.21-.11h1a.14.14 0 0 1 0 .16s-.46.69-2 3c-.17.26-.22.34-.22.38a5.59 5.59 0 0 0 .58.88 32.44 32.44 0 0 1 2.11 3 .1.1 0 0 1 0 .1h-2.24a.27.27 0 0 1-.12-.07S14.59 23 14 22.18l-1.08-1.5a.1.1 0 0 0-.14 0s0 .37 0 1.53v1.48h-1.96z"></path><path d="M19.17 27.51a28.25 28.25 0 0 1-3.06-.24c-4.14-.56-7.6-2-9.53-3.9a5.18 5.18 0 0 1-1.51-2.62 4.05 4.05 0 0 1 0-1.5 4.65 4.65 0 0 1 .79-1.77 10.53 10.53 0 0 1 4.61-3.29A26.93 26.93 0 0 1 23 12.63c5.23.52 9.53 2.43 11.24 5a4.06 4.06 0 0 1 .55 3.67 5.56 5.56 0 0 1-1.36 2.09c-1.83 1.82-5.05 3.2-8.91 3.81a29.37 29.37 0 0 1-5.34.33Zm2.28-1a23.51 23.51 0 0 0 5.59-1 14.43 14.43 0 0 0 3.62-1.67 7.57 7.57 0 0 0 1.22-1 4.71 4.71 0 0 0 1-1.36 3.37 3.37 0 0 0 0-3.13 4.84 4.84 0 0 0-1-1.33 9 9 0 0 0-2.48-1.72 19.8 19.8 0 0 0-7.06-1.85 26.24 26.24 0 0 0-4.69 0c-3.79.34-7 1.47-9.06 3.13a7.82 7.82 0 0 0-.91.91 3.83 3.83 0 0 0-.93 2.67 4.2 4.2 0 0 0 1.37 2.68 9 9 0 0 0 2.41 1.69 20.52 20.52 0 0 0 8.33 2h2.59Z"></path></svg>