<svg xmlns="http://www.w3.org/2000/svg" width="512" height="512" fill-rule="evenodd" clip-rule="evenodd" image-rendering="optimizeQuality" shape-rendering="geometricPrecision" text-rendering="geometricPrecision" id="mercedes"><path fill="#2b2a29" d="M261 5c135 0 244 109 244 244S396 493 261 493 17 384 17 249 126 5 261 5zm4 23 32 191 158 136c18-32 28-68 28-107 0-121-97-219-217-221zm188 330-193-68-189 71c39 65 109 108 190 108 82 0 154-45 192-112zm-384 0 157-134 31-196C137 30 40 128 40 249c0 40 11 77 29 110z"></path></svg>