<svg xmlns="http://www.w3.org/2000/svg" viewBox="0 0 24 24" id="volkswagen"><path d="M12.005 0C5.379 0 0 5.369 0 12.005 0 18.631 5.379 24 12.005 24S24 18.631 24 12.005C24 5.369 18.631 0 12.005 0zm6.415 20.639c-1.796 1.332-4.016 2.125-6.415 2.125s-4.618-.792-6.415-2.124a10.738 10.738 0 0 1-4.343-8.634c0-3.541 1.712-6.679 4.343-8.645a10.741 10.741 0 0 1 12.83-.001 10.774 10.774 0 0 1 4.343 8.645c0 3.54-1.712 6.679-4.343 8.634z"></path><path d="M3.424 9.247a8.827 8.827 0 0 0-.433 2.758c0 2.463.993 4.703 2.599 6.331a9.42 9.42 0 0 0 2.6 1.839L3.424 9.247zm15.873-2.536a8.236 8.236 0 0 0-.877-1.036 8.65 8.65 0 0 0-1.851-1.437l-3.128 7.281h-2.874L7.439 4.238A8.713 8.713 0 0 0 5.59 5.675a8.236 8.236 0 0 0-.877 1.036l4.185 9.627 1.712-3.9h2.79l1.712 3.9 4.185-9.627zm1.289 2.536-4.767 10.927a9.42 9.42 0 0 0 2.6-1.839 8.99 8.99 0 0 0 2.6-6.33c0-.961-.148-1.891-.433-2.758z"></path><path d="M9.49 20.649c.792.232 1.638.359 2.515.359s1.722-.126 2.515-.359l-2.515-5.738-2.515 5.738zm5.104-17.278c-.814-.254-1.691-.38-2.589-.38s-1.765.127-2.589.38l2.589 5.897 2.589-5.897z"></path></svg>