<svg xmlns="http://www.w3.org/2000/svg" viewBox="0 0 24 24" id="volvo"><path d="M7.817 12.055c0 .542.274.952.637.952.345 0 .637-.436.637-.952-.001-.516-.292-.953-.637-.953-.363 0-.637.41-.637.953zm11.921 0c0 .542.274.952.637.952.345 0 .637-.436.637-.952 0-.546-.286-.992-.637-.992-.369 0-.637.417-.637.992z"></path><path d="M23.92 5.699c.04 0 .08-.04.08-.12V.12c0-.08-.04-.12-.08-.12h-5.5c-.04 0-.08.04-.08.12h.081l.058.058c-.033-.018-.065-.04-.099-.058l1.487 1.498-.737.746A11.895 11.895 0 0 0 12 0C8.669 0 5.699 1.364 3.532 3.532A12.067 12.067 0 0 0 .402 9H.393c-.021.084-.038.17-.058.254-.055.231-.102.463-.144.698a12.33 12.33 0 0 0-.137.986c-.031.331-.054.665-.054 1.004l.001.034L0 12c0 .05.007.097.008.147.005.244.016.487.037.727.217 2.975 1.513 5.623 3.489 7.634A11.949 11.949 0 0 0 12.001 24c3.33 0 6.3-1.325 8.467-3.492A12.052 12.052 0 0 0 23.605 15h.002c.009-.032.015-.065.023-.097.049-.195.101-.388.14-.586.066-.324.115-.653.152-.986.009-.082.015-.166.023-.249.029-.331.048-.666.051-1.005 0-.026.004-.051.004-.077l-.001-.025.001-.034c0-.039-.006-.077-.007-.116a11.972 11.972 0 0 0-.061-1.027A11.802 11.802 0 0 0 23.646 9h-.036a12.047 12.047 0 0 0-1.752-3.812l.014-.011-.12-.16.747-.747 1.339 1.349c-.018-.034-.039-.065-.057-.098l.098.098c-.019-.035-.041-.067-.061-.102l.061.061c-.018-.033-.039-.064-.057-.096l.058.058v.078l.04.081zm-17.214.977A7.493 7.493 0 0 1 12 4.474 7.49 7.49 0 0 1 18.867 9H5.114a7.703 7.703 0 0 1 1.592-2.324zm4.423 4.436-.597.03-.03-.383 2.5-.03.03.383-.658.03.03 1.817.637-.03c.208 0 .755-.136.793-.758l.422-.028.03 1.278h-3.754l-.03-.462.657-.03-.03-1.817zm3.063.014-.601.016-.03-.383 2.697-.03.03.383-.697.03.967 1.566.771-1.61-.443.043-.03-.383 1.873-.03.03.383-.657.03-1.197 2.279h-1.471v.001l-1.242-2.295zm-3.787.93c0 .796-.875 1.444-1.951 1.444-1.055 0-1.912-.648-1.912-1.444 0-.762.875-1.405 1.912-1.405 1.076 0 1.951.63 1.951 1.405zm-6.894 1.365L2.27 11.126l-.6.016-.03-.383 2.696-.03.03.383-.696.03.967 1.566.811-1.61-.485.044-.03-.383 1.873-.03.03.383-.658.03-1.198 2.279H3.511zm13.783 3.904c-1.333 1.376-3.216 2.201-5.294 2.201s-3.961-.825-5.294-2.201A7.411 7.411 0 0 1 5.097 15h13.786a7.179 7.179 0 0 1-1.589 2.325zm5.033-5.269c0 .796-.876 1.444-1.952 1.444-1.055 0-1.912-.648-1.912-1.444 0-.797.857-1.445 1.912-1.445 1.076 0 1.952.648 1.952 1.445z"></path></svg>